<?xml version="1.0" standalone="no"?>
<!DOCTYPE svg PUBLIC "-//W3C//DTD SVG 20010904//EN"
 "http://www.w3.org/TR/2001/REC-SVG-20010904/DTD/svg10.dtd">
<svg version="1.0" xmlns="http://www.w3.org/2000/svg"
 width="260.000000pt" height="260.000000pt" viewBox="0 0 260.000000 260.000000"
 preserveAspectRatio="xMidYMid meet">
<metadata>
Created by potrace 1.11, written by Peter Selinger 2001-2013
</metadata>
<g transform="translate(0.000000,260.000000) scale(0.100000,-0.100000)"
fill="#000000" stroke="none">
<path d="M1590 2008 c-36 -33 -103 -92 -150 -129 l-85 -69 -524 0 c-603 0
-613 -1 -687 -75 -51 -51 -68 -100 -61 -170 11 -107 77 -185 220 -261 48 -26
97 -59 108 -72 25 -32 24 -74 -2 -98 -19 -17 -40 -19 -185 -22 l-164 -3 0
-135 0 -134 214 0 c222 0 346 14 410 47 61 31 105 75 133 131 24 49 28 69 28
142 0 75 -3 91 -30 138 -37 68 -67 93 -179 149 -50 25 -103 54 -118 65 -31 21
-37 53 -12 62 23 9 434 7 434 -1 0 -5 -7 -17 -15 -27 -9 -12 -14 -39 -14 -65
l2 -46 6 54 c9 68 38 95 119 111 49 10 79 27 178 98 161 115 293 221 378 303
39 38 69 68 66 68 -3 0 -34 -27 -70 -61z"/>
<path d="M1735 1984 l-40 -36 43 32 c36 27 49 40 40 40 -2 0 -21 -16 -43 -36z"/>
<path d="M1965 1950 c-13 -6 -15 -9 -5 -9 8 0 22 4 30 9 18 12 2 12 -25 0z"/>
<path d="M1669 1933 c-13 -16 -12 -17 4 -4 9 7 17 15 17 17 0 8 -8 3 -21 -13z"/>
<path d="M1603 1889 c-24 -17 -43 -32 -43 -35 0 -3 20 9 45 26 25 17 45 33 45
35 0 7 -2 6 -47 -26z"/>
<path d="M1840 1900 c-8 -5 -10 -10 -5 -10 6 0 17 5 25 10 8 5 11 10 5 10 -5
0 -17 -5 -25 -10z"/>
<path d="M2195 1900 c-13 -6 -15 -9 -5 -9 8 0 22 4 30 9 18 12 2 12 -25 0z"/>
<path d="M2125 1880 c-13 -5 -14 -9 -5 -9 8 0 24 4 35 9 13 5 14 9 5 9 -8 0
-24 -4 -35 -9z"/>
<path d="M1750 1860 c-8 -5 -10 -10 -5 -10 6 0 17 5 25 10 8 5 11 10 5 10 -5
0 -17 -5 -25 -10z"/>
<path d="M1895 1806 c-439 -153 -685 -276 -740 -370 -15 -25 -38 -55 -52 -66
-14 -11 -22 -20 -17 -20 18 1 52 36 79 82 20 36 45 59 103 95 l77 48 592 3
593 2 0 115 0 115 -287 2 -288 3 75 27 c41 14 68 27 60 27 -8 0 -96 -28 -195
-63z"/>
<path d="M1490 1809 c-22 -18 -22 -19 -3 -10 12 6 25 16 28 21 9 15 3 12 -25
-11z"/>
<path d="M1608 1794 c-39 -21 -35 -28 5 -8 37 19 44 24 31 24 -5 -1 -21 -8
-36 -16z"/>
<path d="M1534 1754 c-18 -14 -18 -14 6 -3 31 14 36 19 24 19 -6 0 -19 -7 -30
-16z"/>
<path d="M1318 1700 c-27 -17 -48 -32 -48 -35 0 -3 23 9 50 26 28 17 50 33 50
35 0 6 -2 5 -52 -26z"/>
<path d="M1364 1664 c-18 -14 -18 -15 4 -4 12 6 22 13 22 15 0 8 -5 6 -26 -11z"/>
<path d="M1234 1644 c-18 -14 -18 -15 4 -4 12 6 22 13 22 15 0 8 -5 6 -26 -11z"/>
<path d="M1274 1614 c-18 -14 -18 -15 4 -4 12 6 22 13 22 15 0 8 -5 6 -26 -11z"/>
<path d="M1224 1584 c-18 -14 -18 -15 4 -4 12 6 22 13 22 15 0 8 -5 6 -26 -11z"/>
<path d="M1169 1549 l-24 -20 28 17 c15 9 27 18 27 20 0 8 -8 4 -31 -17z"/>
<path d="M989 1523 c-13 -17 -13 -17 6 -3 11 8 22 16 24 17 2 2 0 3 -6 3 -6 0
-17 -8 -24 -17z"/>
<path d="M1073 1524 c9 -11 17 -31 17 -44 0 -13 -8 -33 -17 -44 -18 -21 -18
-21 5 -2 13 11 22 30 22 46 0 16 -9 35 -22 46 -23 19 -23 19 -5 -2z"/>
<path d="M971 1474 c0 -11 3 -14 6 -6 3 7 2 16 -1 19 -3 4 -6 -2 -5 -13z"/>
<path d="M1332 1449 c-58 -11 -101 -44 -123 -93 -16 -36 -19 -69 -19 -278 l0
-238 95 0 95 0 0 105 0 105 85 0 85 0 0 80 0 80 -85 0 c-83 0 -85 0 -85 24 0
38 35 56 107 56 l63 0 0 85 0 85 -87 -1 c-49 -1 -107 -5 -131 -10z"/>
<path d="M1847 1449 c-90 -21 -172 -87 -211 -169 -31 -67 -29 -186 5 -260 36
-78 71 -114 141 -149 55 -28 70 -31 155 -31 l93 0 0 79 0 79 -70 4 c-72 4
-122 27 -128 62 -3 14 9 16 98 16 l101 0 -3 73 -3 72 -97 3 c-54 1 -98 6 -98
11 0 29 84 60 163 61 l38 0 -3 78 -3 77 -70 2 c-38 1 -87 -3 -108 -8z"/>
<path d="M2110 1371 l0 -90 96 -3 95 -3 -105 -123 c-59 -68 -111 -132 -116
-142 -15 -27 -12 -77 5 -110 28 -54 54 -60 265 -60 l190 0 0 85 0 85 -110 0
c-60 0 -110 4 -110 9 0 5 45 64 100 131 113 138 130 176 107 232 -28 66 -49
73 -244 76 l-173 4 0 -91z"/>
<path d="M992 1434 c10 -10 20 -16 22 -13 3 3 -5 11 -17 18 -21 13 -21 12 -5
-5z"/>
<path d="M920 1422 c0 -8 15 -29 34 -48 29 -29 40 -34 78 -33 l43 2 -45 6
c-55 8 -66 15 -91 55 -10 17 -19 25 -19 18z"/>
<path d="M927 1283 c-4 -3 -7 -105 -7 -225 l0 -218 90 0 90 0 0 225 0 225 -83
0 c-46 0 -87 -3 -90 -7z"/>
<path d="M60 630 l0 -110 1235 0 1235 0 0 110 0 110 -1235 0 -1235 0 0 -110z"/>
</g>
</svg>
